<?xml version="1.0" encoding="UTF-8" standalone="no"?>
<svg
   xmlns:dc="http://purl.org/dc/elements/1.1/"
   xmlns:cc="http://creativecommons.org/ns#"
   xmlns:rdf="http://www.w3.org/1999/02/22-rdf-syntax-ns#"
   xmlns:svg="http://www.w3.org/2000/svg"
   xmlns="http://www.w3.org/2000/svg"
   id="svg27"
   version="1.1"
   height="768"
   width="1024">
  <metadata
     id="metadata33">
    <rdf:RDF>
      <cc:Work
         rdf:about="">
        <dc:format>image/svg+xml</dc:format>
        <dc:type
           rdf:resource="http://purl.org/dc/dcmitype/StillImage" />
      </cc:Work>
    </rdf:RDF>
  </metadata>
  <defs
     id="defs31" />
  <style
     id="style2"><![CDATA[  #title path, #title polygon{ fill: #96C11F !important; } #tagline path, #tagline polygon{ fill: #5e4d3a !important; }  #icon *{ fill: #5e4d3a !important; } ]]></style>
  <g
     id="g7">
    <title
       id="title4">background</title>
    <rect
       x="-1"
       y="-1"
       width="582"
       height="402"
       id="canvas_background"
       fill="none" />
  </g>
  <g
     id="g25">
    <title
       id="title9">Layer 1</title>
    <g
       id="logo-group">
      <g
         id="title"
         fill="#96c11f">
        <path
           id="path90"
           d="m282.4005,383.097015l0,11.5582101c-2.04675801,0.963184173 -4.15373174,1.38457725 -6.44129415,1.38457725c-2.34776142,0 -4.39451943,-0.481592086 -6.20049811,-1.50497527c-1.80597032,-1.02338318 -3.25074658,-2.46815944 -4.21393076,-4.27412977c-1.02338318,-1.80597032 -1.50496691,-3.9129357 -1.50496691,-6.26069712c0,-3.61194065 1.08357383,-6.56169218 3.31093723,-8.72885656c2.16716439,-2.16716439 5.11691592,-3.31094559 8.72885656,-3.31094559c3.97313471,0 7.34427932,1.56517428 10.2338318,4.69552284l7.58507536,-6.86268723c-2.10695702,-2.46815944 -4.69551448,-4.39452779 -7.8258714,-5.71890603c-3.1303402,-1.32437824 -6.6820902,-1.98656736 -10.5950259,-1.98656736c-4.51491745,0 -8.54825953,0.963184173 -12.1000012,2.82935351c-3.61194065,1.86616933 -6.38109514,4.4547268 -8.3676625,7.76567239c-2.04676637,3.3711446 -3.00995054,7.10348327 -3.00995054,11.317414c0,4.21393076 0.963184173,8.00646844 3.00995054,11.317414c1.98656736,3.3711446 4.75572185,5.95970207 8.30746349,7.8258714c3.49154263,1.86616933 7.46467734,2.7691545 11.9194041,2.7691545c3.13034856,0 6.26069712,-0.421393076 9.39104568,-1.38457725c3.13034856,-0.902985162 5.89951142,-2.2273634 8.30747185,-3.97313471l0,-17.4577131l-10.53483514,0z" />
        <path
           id="path92"
           d="m309.702633,403.083086c3.55174164,1.92636835 7.58507536,2.82935351 12.0398105,2.82935351c4.45471844,0 8.42785315,-0.902985162 11.9795948,-2.82935351c3.55174164,-1.86616933 6.32089613,-4.4547268 8.36767086,-7.8258714c2.04675801,-3.31094559 3.07014119,-7.04328426 3.07014119,-11.257215c0,-4.15373174 -1.02338318,-7.88607041 -3.07014119,-11.257215c-2.04677473,-3.31094559 -4.81592922,-5.89950306 -8.36767086,-7.8258714c-3.55174164,-1.86616933 -7.52487635,-2.82935351 -11.9795948,-2.82935351c-4.45473516,0 -8.48806888,0.963184173 -12.0398105,2.82935351c-3.55174164,1.92636835 -6.32089613,4.51492581 -8.3676625,7.8258714c-2.04675801,3.3711446 -3.00995054,7.10348327 -3.00995054,11.257215c0,4.21393076 0.963192534,7.94626942 3.00995054,11.257215c2.04676637,3.3711446 4.81592086,5.95970207 8.3676625,7.8258714zm17.8189072,-8.54825953c-1.74577131,1.02338318 -3.67213966,1.50497527 -5.77909667,1.50497527c-2.16717275,0 -4.09354109,-0.481592086 -5.7791134,-1.50497527c-1.74576295,-0.963184173 -3.13034856,-2.40796043 -4.09352437,-4.21393076c-1.02339154,-1.80597032 -1.50497527,-3.9129357 -1.50497527,-6.32089613c0,-2.34776142 0.481583725,-4.4547268 1.50497527,-6.26069712c0.963175812,-1.80597032 2.34776142,-3.25074658 4.09352437,-4.27412977c1.6855723,-0.963184173 3.61194065,-1.50497527 5.7791134,-1.50497527c2.10695702,0 4.03332536,0.541791097 5.77909667,1.50497527c1.68558066,1.02338318 3.07015791,2.46815944 4.09353273,4.27412977c0.963184173,1.80597032 1.50498363,3.9129357 1.50498363,6.26069712c0,2.40796043 -0.541799458,4.51492581 -1.50498363,6.32089613c-1.02337482,1.80597032 -2.40795207,3.25074658 -4.09353273,4.21393076z" />
        <path
           id="path94"
           d="m360.613129,403.083086c3.55174164,1.92636835 7.58507536,2.82935351 12.0398022,2.82935351c4.4547268,0 8.42786151,-0.902985162 11.9796031,-2.82935351c3.55174164,-1.86616933 6.32089613,-4.4547268 8.3676625,-7.8258714c2.04676637,-3.31094559 3.07014955,-7.04328426 3.07014955,-11.257215c0,-4.15373174 -1.02338318,-7.88607041 -3.07014955,-11.257215c-2.04676637,-3.31094559 -4.81592086,-5.89950306 -8.3676625,-7.8258714c-3.55174164,-1.86616933 -7.52487635,-2.82935351 -11.9796031,-2.82935351c-4.4547268,0 -8.48806052,0.963184173 -12.0398022,2.82935351c-3.55174164,1.92636835 -6.32089613,4.51492581 -8.3676625,7.8258714c-2.04676637,3.3711446 -3.00995054,7.10348327 -3.00995054,11.257215c0,4.21393076 0.963184173,7.94626942 3.00995054,11.257215c2.04676637,3.3711446 4.81592086,5.95970207 8.3676625,7.8258714zm17.8189072,-8.54825953c-1.74577131,1.02338318 -3.67213966,1.50497527 -5.77910504,1.50497527c-2.16716439,0 -4.09353273,-0.481592086 -5.77910504,-1.50497527c-1.74577131,-0.963184173 -3.13034856,-2.40796043 -4.09353273,-4.21393076c-1.02338318,-1.80597032 -1.50497527,-3.9129357 -1.50497527,-6.32089613c0,-2.34776142 0.481592086,-4.4547268 1.50497527,-6.26069712c0.963184173,-1.80597032 2.34776142,-3.25074658 4.09353273,-4.27412977c1.6855723,-0.963184173 3.61194065,-1.50497527 5.77910504,-1.50497527c2.10696538,0 4.03333372,0.541791097 5.77910504,1.50497527c1.6855723,1.02338318 3.07014955,2.46815944 4.09353273,4.27412977c0.963184173,1.80597032 1.50497527,3.9129357 1.50497527,6.26069712c0,2.40796043 -0.541791097,4.51492581 -1.50497527,6.32089613c-1.02338318,1.80597032 -2.40796043,3.25074658 -4.09353273,4.21393076z" />
        <path
           id="path96"
           d="m442.827102,372.863183c-1.98656736,-3.13034856 -4.75572185,-5.598508 -8.30746349,-7.34427932c-3.61194065,-1.6855723 -7.70547338,-2.58855746 -12.2805898,-2.58855746l-19.9258726,0l0,9.5114437l19.4442721,0c3.61194065,0 6.50149317,1.02338318 8.66865755,3.07014955c2.16717275,2.10696538 3.31095395,4.93631888 3.31095395,8.48806052c0,3.61194065 -1.1437812,6.44129415 -3.31095395,8.48806052c-2.16716439,2.04676637 -5.05671691,3.07014955 -8.66865755,3.07014955l-7.52487635,0l0,-11.197016l-11.919396,0l0,20.70846l19.9258726,0c4.57511646,0 8.66864919,-0.842786151 12.2805898,-2.58855746c3.55174164,-1.6855723 6.32089613,-4.15373174 8.30746349,-7.34427932c1.92636835,-3.13034856 2.94975153,-6.86268723 2.94975153,-11.136817c0,-4.21393076 -1.02338318,-7.94626942 -2.94975153,-11.136817l2.5e-7,-2.8e-7z" />
        <path
           id="path98"
           d="m461.137952,403.143285c3.49154263,1.86616933 7.46467734,2.7691545 11.9194041,2.7691545c3.85273669,0 7.28408031,-0.662189119 10.4144289,-2.04676637c3.07014955,-1.32437824 5.65870701,-3.31094559 7.70547338,-5.89950306l-7.58507536,-6.86268723c-2.7691545,3.31094559 -6.08010009,4.93631888 -9.93283678,4.93631888c-2.28756241,0 -4.33432878,-0.481592086 -6.1402991,-1.50497527c-1.80597032,-0.963184173 -3.19054757,-2.40796043 -4.15373174,-4.21393076c-0.963184173,-1.80597032 -1.44477626,-3.9129357 -1.44477626,-6.32089613c0,-2.34776142 0.481592086,-4.4547268 1.44477626,-6.26069712c0.963184173,-1.80597032 2.34776142,-3.25074658 4.15373174,-4.27412977c1.80597032,-0.963184173 3.85273669,-1.50497527 6.1402991,-1.50497527c3.85273669,0 7.16368228,1.6855723 9.93283678,4.93631888l7.58507536,-6.86268723c-2.04676637,-2.52835845 -4.63532383,-4.51492581 -7.70547338,-5.89950306c-3.13034856,-1.32437824 -6.56169218,-2.04676637 -10.4144289,-2.04676637c-4.4547268,0 -8.42786151,0.963184173 -11.9194041,2.82935351c-3.49154263,1.86616933 -6.26069712,4.4547268 -8.24726448,7.76567239c-2.04676637,3.3711446 -3.00995054,7.10348327 -3.00995054,11.317414c0,4.21393076 0.963184173,8.00646844 3.00995054,11.317414c1.98656736,3.3711446 4.75572185,5.95970207 8.24726448,7.8258714l0,8e-8z" />
        <path
           id="path100"
           d="m521.009631,362.930346l-11.7388071,0l-18.601495,42.139308l12.1602002,0l3.31094559,-8.18706547l3.49154263,-8.78905558l5.41791097,-13.4845784l5.41791097,13.4845784l3.49154263,8.78905558l3.31094559,8.18706547l12.4009962,0l-18.66169268,-42.139308z" />
        <path
           id="path102"
           d="m572.790186,391.825871c2.58855746,-1.26417923 4.63532383,-3.00995054 6.08010009,-5.29751295s2.16716439,-4.93631888 2.16716439,-8.00646844c0,-3.13034856 -0.78258714,-5.89950306 -2.28756241,-8.24726448c-1.56517428,-2.34776142 -3.73233867,-4.15373174 -6.50149317,-5.41791097c-2.82935351,-1.26417923 -6.1402991,-1.92636835 -9.93283678,-1.92636835l-19.2636835,0l0,9.39104568l18.5412953,0c2.40796043,0 4.27412977,0.541791097 5.53830899,1.62537329c1.20398022,1.08358219 1.86616933,2.64875647 1.86616933,4.57512482c0,1.98656736 -0.662189119,3.49154263 -1.86616933,4.57512482c-1.26417923,1.08358219 -3.13034856,1.56517428 -5.53830899,1.56517428l-18.5412953,0l0,20.407465l11.9194041,0l0,-11.197016l6.50149317,0l7.645275,11.197016l12.7621903,0l-9.09005119,-13.2437827z" />
        <path
           id="path104"
           d="m587.011266,403.685077c1.32436988,1.32437824 2.94974317,1.92636835 4.87611987,1.92636835c1.92636835,0 3.55173328,-0.601990108 4.87611987,-1.92636835c1.32436988,-1.26417923 1.98656736,-2.88955252 1.98656736,-4.87611987c0,-1.98656736 -0.66219748,-3.61194065 -1.92636835,-4.87611987c-1.3243866,-1.20398022 -2.94975153,-1.86616933 -4.93631888,-1.86616933c-1.98657572,0 -3.61194901,0.662189119 -4.93631888,1.86616933c-1.3243866,1.26417923 -1.92637671,2.88955252 -1.92637671,4.87611987c0,1.98656736 0.662189119,3.61194065 1.98657572,4.87611987z" />
        <path
           id="path106"
           d="m634.400111,391.825871c2.58855746,-1.26417923 4.63532383,-3.00995054 6.08010009,-5.29751295s2.16716439,-4.93631888 2.16716439,-8.00646844c0,-3.13034856 -0.78258714,-5.89950306 -2.28756241,-8.24726448c-1.56517428,-2.34776142 -3.73233867,-4.15373174 -6.50149317,-5.41791097c-2.82935351,-1.26417923 -6.1402991,-1.92636835 -9.93283678,-1.92636835l-19.2636835,0l0,9.39104568l18.5412953,0c2.40796043,0 4.27412977,0.541791097 5.53830899,1.62537329c1.20398022,1.08358219 1.86616933,2.64875647 1.86616933,4.57512482c0,1.98656736 -0.662189119,3.49154263 -1.86616933,4.57512482c-1.26417923,1.08358219 -3.13034856,1.56517428 -5.53830899,1.56517428l-18.541295,0l0,20.407465l11.9194041,0l0,-11.197016l6.50149317,0l7.645274,11.197016l12.7621903,0l-9.09005049,-13.2437827z" />
        <path
           id="path108"
           d="m682.633624,362.930346l-33.410451,0l0,9.21044865l33.410451,0l0,-9.21044865zm0,16.3139319l-33.410451,0l0,8.9094536l33.410451,0l0,-8.9094536zm-33.410451,16.614927l0,9.210449l33.410451,0l0,-9.21044865l-33.410451,-3.5e-7z" />
        <path
           id="path110"
           d="m689.669383,405.069654l11.6786165,0l0,-7.103483l-11.678617,-14.869156l5e-7,21.972639zm28.4139331,-42.1393076l0,7.64527437l11.6786081,14.0865685l0,-21.731842l-11.6786081,-8.7e-7zm0,22.454231l-18.6014943,-22.454231l-9.81243876,0l0,5.598508l11.678617,14.086569l18.601486,22.454231l9.81243876,0l0,-4.87611987l-11.6786081,-14.8691557l-6e-7,0.06019857z" />
        <path
           id="path112"
           d="m747.198008,372.381591l0,32.688063l11.9194041,0l0,-32.6880629l12.8825883,0l0,-9.451245l-37.7447798,0l0,9.45124469l12.9427874,2.1e-7z" />
      </g>
    </g>
  </g>
</svg>
