<?xml version="1.0" encoding="UTF-8"?>
<svg width="520px" height="44px" viewBox="0 0 520 44" version="1.1" xmlns="http://www.w3.org/2000/svg" xmlns:xlink="http://www.w3.org/1999/xlink">
    <!-- Generator: Sketch 3.6.1 (26313) - http://www.bohemiancoding.com/sketch -->
    <title>logo-group</title>
    <desc>Created with Sketch.</desc>
    <defs></defs>
    <g id="Page-1" stroke="none" stroke-width="1" fill="none" fill-rule="evenodd">
        <g id="brandmark-design-(1)" transform="translate(-253.000000, -363.000000)" fill="#96C11F">
            <g id="svg28">
                <g id="g26" transform="translate(1.000000, 1.000000)">
                    <g id="logo-group" transform="translate(252.000000, 362.000000)">
                        <g id="title">
                            <path d="M30.4005,21.097015 L30.4005,32.6552251 C28.353742,33.6184093 26.2467683,34.0398024 23.9592059,34.0398024 C21.6114444,34.0398024 19.5646864,33.5582103 17.7587077,32.5348271 C15.9527374,31.5114439 14.5079612,30.0666676 13.544777,28.2606973 C12.5213938,26.454727 12.0398101,24.3477616 12.0398101,22.0000002 C12.0398101,18.3880595 13.1233839,15.438308 15.3507473,13.2711436 C17.5179117,11.1039792 20.4676632,9.96019804 24.0796039,9.96019804 C28.0527386,9.96019804 31.4238832,11.5253723 34.3134357,14.6557209 L41.898511,7.79303365 C39.791554,5.32487421 37.2029965,3.39850586 34.0726396,2.07412762 C30.9422994,0.74974938 27.3905494,0.08756026 23.4776137,0.08756026 C18.9626963,0.08756026 14.9293542,1.05074443 11.3776125,2.91691377 C7.76567187,4.7830831 4.99651738,7.37164057 3.00995002,10.6825862 C0.96318365,14.0537308 -5.19999901e-07,17.7860694 -5.19999901e-07,22.0000002 C-5.19999901e-07,26.2139309 0.963183653,30.0064686 3.00995002,33.3174142 C4.99651738,36.6885588 7.76567187,39.2771162 11.3174135,41.1432856 C14.8089561,43.0094549 18.7820909,43.9124401 23.2368176,43.9124401 C26.3671662,43.9124401 29.4975147,43.491047 32.6278633,42.5278628 C35.7582119,41.6248776 38.5273747,40.3004994 40.9353351,38.5547281 L40.9353351,21.097015 L30.4005,21.097015 L30.4005,21.097015 Z" id="path90"></path>
                            <path d="M57.702633,41.083086 C61.2543746,43.0094543 65.2877084,43.9124395 69.7424435,43.9124395 C74.1971619,43.9124395 78.1702966,43.0094543 81.7220383,41.083086 C85.2737799,39.2169167 88.0429344,36.6283592 90.0897092,33.2572146 C92.1364672,29.946269 93.1598503,26.2139303 93.1598503,21.9999996 C93.1598503,17.8462679 92.1364672,14.1139292 90.0897092,10.7427846 C88.0429344,7.43183901 85.2737799,4.84328154 81.7220383,2.9169132 C78.1702967,1.05074387 74.1971619,0.08755969 69.7424435,0.08755969 C65.2877083,0.08755969 61.2543746,1.05074386 57.702633,2.9169132 C54.1508914,4.84328155 51.3817369,7.43183901 49.3349705,10.7427846 C47.2882125,14.1139292 46.32502,17.8462679 46.32502,21.9999996 C46.32502,26.2139304 47.2882125,29.946269 49.3349705,33.2572146 C51.3817369,36.6283592 54.1508914,39.2169167 57.702633,41.083086 L57.702633,41.083086 Z M75.5215402,32.5348265 C73.7757689,33.5582096 71.8494005,34.0398017 69.7424435,34.0398017 C67.5752708,34.0398017 65.6489024,33.5582097 63.9633301,32.5348265 C62.2175672,31.5716423 60.8329816,30.126866 59.8698058,28.3208957 C58.8464142,26.5149254 58.3648305,24.40796 58.3648305,21.9999996 C58.3648305,19.6522382 58.8464142,17.5452728 59.8698058,15.7393025 C60.8329816,13.9333321 62.2175672,12.4885559 63.9633301,11.4651727 C65.6489024,10.5019885 67.5752708,9.96019742 69.7424435,9.96019742 C71.8494005,9.96019742 73.7757689,10.5019885 75.5215402,11.4651727 C77.2071209,12.4885559 78.5916981,13.9333321 79.6150729,15.7393025 C80.5782571,17.5452728 81.1200566,19.6522382 81.1200566,21.9999996 C81.1200566,24.40796 80.5782571,26.5149254 79.6150729,28.3208957 C78.5916981,30.126866 77.2071209,31.5716423 75.5215402,32.5348265 L75.5215402,32.5348265 Z" id="path92"></path>
                            <path d="M108.613129,41.083086 C112.164871,43.0094543 116.198204,43.9124395 120.652931,43.9124395 C125.107658,43.9124395 129.080793,43.0094543 132.632534,41.083086 C136.184276,39.2169167 138.95343,36.6283592 141.000197,33.2572146 C143.046963,29.946269 144.070346,26.2139303 144.070346,21.9999996 C144.070346,17.8462679 143.046963,14.1139292 141.000197,10.7427846 C138.95343,7.43183901 136.184276,4.84328154 132.632534,2.9169132 C129.080793,1.05074387 125.107658,0.08755969 120.652931,0.08755969 C116.198204,0.08755969 112.164871,1.05074386 108.613129,2.9169132 C105.061387,4.84328155 102.292233,7.43183901 100.245467,10.7427846 C98.1987001,14.1139292 97.235516,17.8462679 97.235516,21.9999996 C97.235516,26.2139304 98.1987001,29.946269 100.245467,33.2572146 C102.292233,36.6283592 105.061387,39.2169167 108.613129,41.083086 L108.613129,41.083086 Z M126.432036,32.5348265 C124.686265,33.5582096 122.759897,34.0398017 120.652931,34.0398017 C118.485767,34.0398017 116.559398,33.5582097 114.873826,32.5348265 C113.128055,31.5716423 111.743478,30.126866 110.780293,28.3208957 C109.75691,26.5149254 109.275318,24.40796 109.275318,21.9999996 C109.275318,19.6522382 109.75691,17.5452728 110.780293,15.7393025 C111.743478,13.9333321 113.128055,12.4885559 114.873826,11.4651727 C116.559398,10.5019885 118.485767,9.96019742 120.652931,9.96019742 C122.759897,9.96019742 124.686265,10.5019885 126.432036,11.4651727 C128.117609,12.4885559 129.502186,13.9333321 130.525569,15.7393025 C131.488753,17.5452728 132.030544,19.6522382 132.030544,21.9999996 C132.030544,24.40796 131.488753,26.5149254 130.525569,28.3208957 C129.502186,30.126866 128.117609,31.5716423 126.432036,32.5348265 L126.432036,32.5348265 Z" id="path94"></path>
                            <path d="M190.827102,10.863183 C188.840535,7.73283444 186.07138,5.264675 182.519639,3.51890368 C178.907698,1.83333138 174.814165,0.93034622 170.239049,0.93034622 L150.313176,0.93034622 L150.313176,10.4417899 L169.757448,10.4417899 C173.369389,10.4417899 176.258941,11.4651731 178.426106,13.5119395 C180.593279,15.6189048 181.73706,18.4482583 181.73706,22 C181.73706,25.6119406 180.593279,28.4412941 178.426106,30.4880605 C176.258941,32.5348269 173.369389,33.5582101 169.757448,33.5582101 L162.232572,33.5582101 L162.232572,22.3611941 L150.313176,22.3611941 L150.313176,43.0696541 L170.239048,43.0696541 C174.814165,43.0696541 178.907698,42.2268679 182.519638,40.4810966 C186.07138,38.7955243 188.840534,36.3273649 190.827102,33.1368173 C192.75347,30.0064687 193.776853,26.27413 193.776853,22.0000003 C193.776853,17.7860695 192.75347,14.0537309 190.827102,10.8631833 L190.827102,10.863183 L190.827102,10.863183 Z" id="path96"></path>
                            <path d="M209.137952,41.143285 C212.629495,43.0094543 216.602629,43.9124395 221.057356,43.9124395 C224.910093,43.9124395 228.341436,43.2502504 231.471785,41.8656731 C234.541935,40.5412949 237.130492,38.5547275 239.177258,35.9661701 L231.592183,29.1034828 C228.823029,32.4144284 225.512083,34.0398017 221.659346,34.0398017 C219.371784,34.0398017 217.325017,33.5582096 215.519047,32.5348265 C213.713077,31.5716423 212.3285,30.126866 211.365315,28.3208957 C210.402131,26.5149254 209.920539,24.40796 209.920539,21.9999996 C209.920539,19.6522381 210.402131,17.5452728 211.365315,15.7393024 C212.3285,13.9333321 213.713077,12.4885559 215.519047,11.4651727 C217.325017,10.5019885 219.371784,9.9601974 221.659346,9.9601974 C225.512083,9.9601974 228.823029,11.6457697 231.592183,14.8965163 L239.177258,8.03382905 C237.130492,5.5054706 234.541935,3.51890324 231.471785,2.13432599 C228.341436,0.80994775 224.910093,0.08755962 221.057356,0.08755962 C216.602629,0.08755962 212.629495,1.05074379 209.137952,2.91691313 C205.646409,4.78308246 202.877255,7.37163993 200.890688,10.6825855 C198.843921,14.0537301 197.880737,17.7860688 197.880737,21.9999995 C197.880737,26.2139303 198.843921,30.006468 200.890688,33.3174135 C202.877255,36.6885581 205.646409,39.2771156 209.137952,41.1432849 L209.137952,41.143285 L209.137952,41.143285 Z" id="path98"></path>
                            <path d="M269.009631,0.930346 L257.270824,0.930346 L238.669329,43.069654 L250.829529,43.069654 L254.140475,34.8825885 L257.632017,26.0935329 L268.467839,26.0935329 L271.959382,34.8825885 L275.270327,43.069654 L287.671324,43.069654 L269.009631,0.930346 L269.009631,0.930346 Z" id="path100"></path>
                            <path d="M320.790186,29.825871 C323.378743,28.5616918 325.42551,26.8159205 326.870286,24.528358 C328.315062,22.2407956 329.03745,19.5920392 329.03745,16.5218896 C329.03745,13.391541 328.254863,10.6223865 326.749888,8.27462513 C325.184714,5.92686371 323.017549,4.12089339 320.248395,2.85671416 C317.419041,1.59253493 314.108096,0.93034581 310.315558,0.93034581 L291.051875,0.93034581 L291.051875,10.3213915 L309.59317,10.3213915 C312.00113,10.3213915 313.8673,10.8631826 315.131479,11.9467648 C316.335459,13.030347 316.997648,14.5955212 316.997648,16.5218896 C316.997648,18.508457 316.335459,20.0134322 315.131479,21.0970144 C313.8673,22.1805966 312.00113,22.6621887 309.59317,22.6621887 L291.051875,22.6621887 L291.051875,43.0696537 L302.971279,43.0696537 L302.971279,31.8726377 L309.472772,31.8726377 L317.118047,43.0696537 L329.880237,43.0696537 L320.790186,29.825871 L320.790186,29.825871 Z" id="path102"></path>
                            <path d="M335.011266,41.685077 C336.335636,43.0094552 337.961009,43.6114453 339.887386,43.6114453 C341.813754,43.6114453 343.439119,43.0094552 344.763506,41.685077 C346.087876,40.4208978 346.750073,38.7955245 346.750073,36.8089571 C346.750073,34.8223898 346.087876,33.1970165 344.823705,31.9328373 C343.499318,30.728857 341.873953,30.0666679 339.887386,30.0666679 C337.90081,30.0666679 336.275437,30.728857 334.951067,31.9328373 C333.62668,33.1970165 333.02469,34.8223898 333.02469,36.8089571 C333.02469,38.7955245 333.686879,40.4208978 335.011266,41.685077 L335.011266,41.685077 Z" id="path104"></path>
                            <path d="M382.400111,29.825871 C384.988668,28.5616918 387.035435,26.8159205 388.480211,24.528358 C389.924987,22.2407956 390.647375,19.5920392 390.647375,16.5218896 C390.647375,13.391541 389.864788,10.6223865 388.359813,8.27462513 C386.794639,5.92686371 384.627474,4.12089339 381.85832,2.85671416 C379.028966,1.59253493 375.718021,0.93034581 371.925483,0.93034581 L352.6618,0.93034581 L352.6618,10.3213915 L371.203095,10.3213915 C373.611055,10.3213915 375.477225,10.8631826 376.741404,11.9467648 C377.945384,13.030347 378.607573,14.5955212 378.607573,16.5218896 C378.607573,18.508457 377.945384,20.0134322 376.741404,21.0970144 C375.477225,22.1805966 373.611055,22.6621887 371.203095,22.6621887 L352.6618,22.6621887 L352.6618,43.0696537 L364.581204,43.0696537 L364.581204,31.8726377 L371.082697,31.8726377 L378.727971,43.0696537 L391.490161,43.0696537 L382.400111,29.825871 L382.400111,29.825871 Z" id="path106"></path>
                            <path d="M430.633624,0.930346 L397.223173,0.930346 L397.223173,10.1407946 L430.633624,10.1407946 L430.633624,0.930346 L430.633624,0.930346 Z M430.633624,17.2442779 L397.223173,17.2442779 L397.223173,26.1537315 L430.633624,26.1537315 L430.633624,17.2442779 L430.633624,17.2442779 Z M397.223173,33.8592049 L397.223173,43.0696539 L430.633624,43.0696539 L430.633624,33.8592053 L397.223173,33.8592049 L397.223173,33.8592049 Z" id="path108"></path>
                            <path d="M437.669383,43.069654 L449.348,43.069654 L449.348,35.966171 L437.669382,21.097015 L437.669383,43.069654 L437.669383,43.069654 Z M466.083316,0.9303464 L466.083316,8.57562077 L477.761924,22.6621893 L477.761924,0.93034727 L466.083316,0.9303464 L466.083316,0.9303464 Z M466.083316,23.3845774 L447.481822,0.9303464 L437.669383,0.9303464 L437.669383,6.5288544 L449.348,20.6154234 L467.949486,43.0696544 L477.761925,43.0696544 L477.761925,38.1935345 L466.083317,23.3243788 L466.083316,23.3845774 L466.083316,23.3845774 Z" id="path110"></path>
                            <path d="M495.198008,10.381591 L495.198008,43.069654 L507.117412,43.069654 L507.117412,10.3815911 L520,10.3815911 L520,0.9303461 L482.255221,0.9303461 L482.255221,10.3815908 L495.198008,10.381591 L495.198008,10.381591 Z" id="path112"></path>
                        </g>
                    </g>
                </g>
            </g>
        </g>
    </g>
</svg>