<?xml version="1.0" encoding="UTF-8"?>
<svg fill="none" viewBox="0 0 70 76" xmlns="http://www.w3.org/2000/svg">
<path d="M55.7333 73.4667H2.53333V2.53333H43.0667V15.2H55.7333V19H58.2667V13.4089L44.8577 0H0V76H58.2667V54.4667H55.7333V73.4667ZM45.6 4.3244L53.9423 12.6667H45.6V4.3244Z" fill="url(#n)"/>
<path d="m10.133 7.6h-2.5333v2.5333h2.5333v-2.5333z" fill="url(#i)"/>
<path d="m38 7.6h-25.333v2.5333h25.333v-2.5333z" fill="url(#h)"/>
<path d="M38 12.6667H7.59998V15.2H38V12.6667Z" fill="url(#g)"/>
<path d="m50.667 17.733h-43.067v2.5334h43.067v-2.5334z" fill="url(#f)"/>
<path d="m50.667 22.8h-43.067v2.5333h43.067v-2.5333z" fill="url(#e)"/>
<path d="m50.667 27.867h-43.067v2.5334h43.067v-2.5334z" fill="url(#d)"/>
<path d="m50.667 32.933h-43.067v2.5334h43.067v-2.5334z" fill="url(#c)"/>
<path d="m45.6 38h-38v2.5333h38v-2.5333z" fill="url(#b)"/>
<path d="m45.6 43.067h-38v2.5333h38v-2.5333z" fill="url(#a)"/>
<path d="m43.067 48.133h-35.467v2.5333h35.467v-2.5333z" fill="url(#m)"/>
<path d="m40.533 53.2h-32.933v2.5333h32.933v-2.5333z" fill="url(#l)"/>
<path d="m30.907 65.208c0.8544 0.0061 1.6796-0.3105 2.3104-0.8867 0.3167-0.2533 0.4117-0.3293 0.7271-0.3293s0.4104 0.076 0.7271 0.3293c1.3152 1.1813 3.3093 1.1813 4.6245 0 0.3167-0.2533 0.413-0.3306 0.7296-0.3306 0.3167 0 0.413 0.076 0.7309 0.3306 0.6322 0.5755 1.4579 0.892 2.3129 0.8867v-2.5334c-0.3166 0-0.4129-0.076-0.7308-0.3306-1.3161-1.1802-3.3098-1.1802-4.6259 0-0.3167 0.2534-0.4129 0.3306-0.7296 0.3306s-0.4104-0.076-0.7283-0.3293c-1.314-1.1821-3.3081-1.1821-4.6221 0-0.3166 0.2533-0.4116 0.3293-0.7258 0.3293-0.3141 0-0.4104-0.076-0.727-0.3293-0.6315-0.5768-1.4578-0.8935-2.313-0.8867v2.5334c0.3142 0 0.4092 0.076 0.7258 0.3293 0.6324 0.5762 1.4587 0.8928 2.3142 0.8867z" fill="url(#k)"/>
<path d="m67.037 17.542-2.3104-1.0412c-1.9138-0.8612-4.1635-0.0079-5.0247 1.9059 0 1e-4 -1e-4 3e-4 -1e-4 4e-4l-16.815 37.345 1.8468 8.2396 7.3936-4.0786 16.815-37.346c0.8577-1.9138 0.0057-4.1607-1.9051-5.0249zm-20.566 42.587-0.4611-2.0533 2.3092 1.04-1.8481 1.0133zm4.0445-2.8044-4.6259-2.0723 13.517-30.03 4.6208 2.0811-13.512 30.021zm16.111-35.791-1.5592 3.4643-4.6208-2.0811 1.5605-3.4631c0.2878-0.637 1.0372-0.9204 1.6745-0.6333l2.3104 1.0386c0.6375 0.2874 0.9215 1.037 0.6346 1.6746z" fill="url(#j)"/>
<defs>
<linearGradient id="n" x1="29.133" x2="29.133" y2="76" gradientUnits="userSpaceOnUse">
<stop stop-color="#96C11F" offset="0"/>
<stop stop-color="#709800" offset="1"/>
</linearGradient>
<linearGradient id="i" x1="8.8666" x2="8.8666" y1="7.6" y2="10.133" gradientUnits="userSpaceOnUse">
<stop stop-color="#96C11F" offset="0"/>
<stop stop-color="#709800" offset="1"/>
</linearGradient>
<linearGradient id="h" x1="25.333" x2="25.333" y1="7.6" y2="10.133" gradientUnits="userSpaceOnUse">
<stop stop-color="#96C11F" offset="0"/>
<stop stop-color="#709800" offset="1"/>
</linearGradient>
<linearGradient id="g" x1="22.8" x2="22.8" y1="12.667" y2="15.2" gradientUnits="userSpaceOnUse">
<stop stop-color="#96C11F" offset="0"/>
<stop stop-color="#709800" offset="1"/>
</linearGradient>
<linearGradient id="f" x1="29.133" x2="29.133" y1="17.733" y2="20.267" gradientUnits="userSpaceOnUse">
<stop stop-color="#96C11F" offset="0"/>
<stop stop-color="#709800" offset="1"/>
</linearGradient>
<linearGradient id="e" x1="29.133" x2="29.133" y1="22.8" y2="25.333" gradientUnits="userSpaceOnUse">
<stop stop-color="#96C11F" offset="0"/>
<stop stop-color="#709800" offset="1"/>
</linearGradient>
<linearGradient id="d" x1="29.133" x2="29.133" y1="27.867" y2="30.4" gradientUnits="userSpaceOnUse">
<stop stop-color="#96C11F" offset="0"/>
<stop stop-color="#709800" offset="1"/>
</linearGradient>
<linearGradient id="c" x1="29.133" x2="29.133" y1="32.933" y2="35.467" gradientUnits="userSpaceOnUse">
<stop stop-color="#96C11F" offset="0"/>
<stop stop-color="#709800" offset="1"/>
</linearGradient>
<linearGradient id="b" x1="26.6" x2="26.6" y1="38" y2="40.533" gradientUnits="userSpaceOnUse">
<stop stop-color="#96C11F" offset="0"/>
<stop stop-color="#709800" offset="1"/>
</linearGradient>
<linearGradient id="a" x1="26.6" x2="26.6" y1="43.067" y2="45.6" gradientUnits="userSpaceOnUse">
<stop stop-color="#96C11F" offset="0"/>
<stop stop-color="#709800" offset="1"/>
</linearGradient>
<linearGradient id="m" x1="25.333" x2="25.333" y1="48.133" y2="50.667" gradientUnits="userSpaceOnUse">
<stop stop-color="#96C11F" offset="0"/>
<stop stop-color="#709800" offset="1"/>
</linearGradient>
<linearGradient id="l" x1="24.067" x2="24.067" y1="53.2" y2="55.733" gradientUnits="userSpaceOnUse">
<stop stop-color="#96C11F" offset="0"/>
<stop stop-color="#709800" offset="1"/>
</linearGradient>
<linearGradient id="k" x1="35.468" x2="35.468" y1="61.459" y2="65.208" gradientUnits="userSpaceOnUse">
<stop stop-color="#96C11F" offset="0"/>
<stop stop-color="#709800" offset="1"/>
</linearGradient>
<linearGradient id="j" x1="56.081" x2="56.081" y1="16.165" y2="63.992" gradientUnits="userSpaceOnUse">
<stop stop-color="#96C11F" offset="0"/>
<stop stop-color="#709800" offset="1"/>
</linearGradient>
</defs>
</svg>
