<?xml version="1.0" encoding="UTF-8"?>
<svg fill="none" viewBox="0 0 76 76" xmlns="http://www.w3.org/2000/svg">
<path d="m74.884 20.227c-2.0092 0-3.6438-1.6345-3.6438-3.6439 0-0.6161-0.4994-1.1155-1.1155-1.1155-0.6162 0-1.1155 0.4994-1.1155 1.1155 0 2.0093-1.6345 3.6439-3.6439 3.6439-0.6162 0-1.1155 0.4993-1.1155 1.1155s0.4993 1.1155 1.1155 1.1155c2.0093 0 3.6439 1.6346 3.6439 3.6438 0 0.6162 0.4993 1.1156 1.1155 1.1156 0.6161 0 1.1155-0.4994 1.1155-1.1156 0-2.0092 1.6344-3.6438 3.6438-3.6438 0.6162 0 1.1155-0.4993 1.1155-1.1155s-0.4993-1.1155-1.1155-1.1155zm-4.7592 2.4342c-0.3669-0.506-0.8128-0.9518-1.3187-1.3187 0.506-0.3669 0.9519-0.8129 1.3187-1.3187 0.3669 0.506 0.8129 0.9518 1.3187 1.3187-0.506 0.3669-0.9518 0.8128-1.3187 1.3187z" fill="url(#a)"/>
<path d="m10.634 20.227c-2.0091 0-3.6439-1.6345-3.6439-3.6439 0-0.6161-0.49949-1.1155-1.1155-1.1155-0.61602 0-1.1155 0.4994-1.1155 1.1155 0 2.0093-1.6347 3.6439-3.6438 3.6439-0.61601 0-1.1155 0.4993-1.1155 1.1155s0.49949 1.1155 1.1155 1.1155c2.0091 0 3.6438 1.6346 3.6438 3.6438 0 0.6162 0.49949 1.1156 1.1155 1.1156 0.61601 0 1.1155-0.4994 1.1155-1.1156 0-2.0092 1.6347-3.6438 3.6439-3.6438 0.616 0 1.1155-0.4993 1.1155-1.1155s-0.4995-1.1155-1.1155-1.1155zm-4.7594 2.4342c-0.36694-0.506-0.8127-0.9518-1.3187-1.3187 0.50617-0.3669 0.95193-0.8129 1.3187-1.3187 0.36693 0.506 0.81269 0.9518 1.3187 1.3187-0.50587 0.3669-0.95178 0.8128-1.3187 1.3187z" fill="url(#a)"/>
<path d="m43.949 5.9491c-2.6653 0-4.8337-2.1682-4.8337-4.8337 1e-4 -0.61602-0.4992-1.1154-1.1154-1.1154-0.616 0-1.1155 0.49934-1.1155 1.1155 0 2.6653-2.1685 4.8337-4.8337 4.8337-0.616 0-1.1155 0.49934-1.1155 1.1155 0 0.61617 0.4995 1.1155 1.1155 1.1155 2.6652 0 4.8337 2.1684 4.8337 4.8338 0 0.6161 0.4995 1.1155 1.1155 1.1155 0.6162 0 1.1155-0.4994 1.1155-1.1155 0-2.6654 2.1684-4.8338 4.8338-4.8338 0.6161 0 1.1155-0.49934 1.1155-1.1155 0-0.61616-0.4995-1.1156-1.1157-1.1156zm-5.9491 3.258c-0.5514-0.85856-1.284-1.5911-2.1427-2.1425 0.8587-0.55145 1.5913-1.284 2.1427-2.1426 0.5515 0.85856 1.284 1.5911 2.1426 2.1426-0.8586 0.55144-1.5911 1.284-2.1426 2.1425z" fill="url(#a)"/>
<path d="m61.224 37.629-4.3391-12.294c-0.3246-0.92-1.1983-1.5381-2.1739-1.5381h-33.719c-0.9757 0-1.8493 0.6181-2.1739 1.5379l-4.3391 12.294c-0.2521 0.7141 0.2957 1.4867 1.0518 1.4867h44.642c0.3619 0 0.7014-0.1757 0.9104-0.4711 0.2091-0.2956 0.2619-0.6742 0.1414-1.0156zm-44.117-0.7443 3.8144-10.808c0.01-0.0286 0.0396-0.0496 0.07-0.0496h33.72c0.0305 0 0.06 0.021 0.0702 0.0498l3.8144 10.807h-41.488z" fill="url(#a)"/>
<path d="m59.268 52.352c-3.9616 0-7.0646 2.0579-7.0646 4.685 0 2.627 3.103 4.685 7.0646 4.685 3.9615 0 7.0645-2.058 7.0645-4.685 0-2.6271-3.103-4.685-7.0645-4.685zm0 7.139c-2.7666 0-4.8338-1.2956-4.8338-2.454s2.067-2.454 4.8338-2.454c2.7665 0 4.8337 1.2956 4.8337 2.454s-2.0672 2.454-4.8337 2.454z" fill="url(#a)"/>
<path d="m16.434 52.352c-3.9615 0-7.0646 2.0579-7.0646 4.685 0 2.627 3.1031 4.685 7.0646 4.685s7.0646-2.058 7.0646-4.685c0-2.6271-3.1031-4.685-7.0646-4.685zm0 7.139c-2.7664 0-4.8337-1.2956-4.8337-2.454s2.0671-2.454 4.8337-2.454 4.8337 1.2956 4.8337 2.454-2.0671 2.454-4.8337 2.454z" fill="url(#a)"/>
<path d="m73.546 35.695h-5.9491c-0.5118 0-0.958 0.3484-1.0821 0.8449l-0.7836 3.1342-5.4804-15.527c-0.8274-2.3443-3.0537-3.9195-5.5399-3.9195h-33.719c-2.4862 0-4.7125 1.5752-5.5399 3.9196l-5.4803 15.528-0.7836-3.1344c-0.12424-0.4967-0.57044-0.8449-1.0821-0.8449h-5.9492c-0.61602 0-1.1155 0.4993-1.1155 1.1155v4.7593c0 0.6162 0.49949 1.1155 1.1155 1.1155h6.1612l-3.8028 5.3239c-0.71577 1.0021-1.0941 2.1831-1.0941 3.4147v13.942c0 1.9319 0.93768 3.6487 2.3815 4.72-4.5e-4 0.0131-0.00193 0.026-0.00193 0.0392v3.5695c0 1.2712 1.0342 2.3052 2.3052 2.3052h7.139c1.2712 0 2.3052-1.0341 2.3052-2.3052v-2.454h40.603v2.454c0 1.2712 1.0342 2.3052 2.3053 2.3052h7.1389c1.2713 0 2.3053-1.0341 2.3053-2.3052v-3.5695c0-0.0132-0.0015-0.0261-2e-3 -0.0392 1.4439-1.0713 2.3816-2.7881 2.3816-4.72v-13.942c0-1.2318-0.3785-2.4127-1.0943-3.4147l-3.8028-5.3239h6.1613c0.6162 0 1.1155-0.4993 1.1155-1.1155v-4.7593c2e-4 -0.6163-0.499-1.1155-1.1152-1.1155zm-70.274 4.7592v-2.5284h3.9627l0.63205 2.5284h-4.5947zm12.047 33.241c0 0.0409-0.0332 0.0743-0.0743 0.0743h-7.139c-0.04097 0-0.07437-0.0334-0.07437-0.0743v-2.454h7.2877v2.454zm52.352 0c0 0.0409-0.0335 0.0743-0.0744 0.0743h-7.139c-0.0409 0-0.0743-0.0334-0.0743-0.0743v-2.454h7.2877v2.454zm-1.2641-4.685h-57.112c-1.6202 0-2.9962-1.0631-3.4685-2.5283h64.049c-0.4723 1.4652-1.8482 2.5283-3.4683 2.5283zm-18.963-12.047v2.5283h-19.186v-2.5283h19.186zm-19.011-2.231c0.4724-1.4652 1.8482-2.5283 3.4686-2.5283h11.898c1.6202 0 2.9962 1.0631 3.4685 2.5283h-18.835zm19.011 6.9902v2.5283h-19.186v-2.5283h19.186zm21.928-12.416c0.444 0.6215 0.6787 1.3539 0.6787 2.1179v12.827h-20.376v-8.4032c0-3.2394-2.6355-5.8747-5.8747-5.8747h-11.898c-3.2394 0-5.8747 2.6355-5.8747 5.8747v8.4032h-20.376v-12.827c0-0.764 0.23467-1.4964 0.67865-2.1179l4.7291-6.6206h41.07c0.6162 0 1.1155-0.4993 1.1155-1.1155s-0.4993-1.1155-1.1155-1.1155h-40.067l5.4935-15.565c0.5133-1.454 1.894-2.4311 3.4362-2.4311h33.72c1.5419 0 2.9227 0.977 3.4362 2.4311l5.4933 15.565h-6.7523c-0.6161 0-1.1155 0.4993-1.1155 1.1155s0.4994 1.1155 1.1155 1.1155h7.7549l4.729 6.6206zm3.0583-8.8516h-4.5949l0.6321-2.5284h3.9628v2.5284z" fill="url(#a)"/>
<path d="m20.004 48.783h-7.139c-0.616 0-1.1155 0.4994-1.1155 1.1155 0 0.6162 0.4995 1.1155 1.1155 1.1155h7.139c0.616 0 1.1155-0.4993 1.1155-1.1155 0-0.6161-0.4995-1.1155-1.1155-1.1155z" fill="url(#a)"/>
<path d="m62.838 48.783h-7.139c-0.6161 0-1.1155 0.4994-1.1155 1.1155 0 0.6162 0.4994 1.1155 1.1155 1.1155h7.139c0.6162 0 1.1155-0.4993 1.1155-1.1155 0-0.6161-0.4993-1.1155-1.1155-1.1155z" fill="url(#a)"/>
<defs>
<linearGradient id="a" x1="38" x2="38" y2="76" gradientUnits="userSpaceOnUse">
<stop stop-color="#96C11F" offset="0"/>
<stop stop-color="#709800" offset="1"/>
</linearGradient>
</defs>
</svg>
