<?xml version="1.0" encoding="UTF-8"?>
<svg fill="none" viewBox="0 0 76 76" xmlns="http://www.w3.org/2000/svg">
<path d="m64.875 62.766c-0.5798-0.5797-1.5241-0.5751-2.1039 0.0046-0.5797 0.5796-0.5797 1.5195 0 2.0993 0.2899 0.2898 0.6697 0.4348 1.0496 0.4348 0.3798 0 0.7597-0.145 1.0496-0.4348l0.0093-0.0093c0.5797-0.5797 0.5751-1.515-0.0046-2.0946z" fill="url(#a)"/>
<path d="m75.924 35.598c-0.5811-9.2312-4.507-17.921-11.054-24.468-7.1773-7.1771-16.72-11.13-26.87-11.13-9.675 0-18.798 3.591-25.846 10.143l-1.6139-1.4777c-0.4341-0.39766-1.0617-0.50112-1.6004-0.26377-0.53868 0.2372-0.88632 0.77009-0.88632 1.3585v11.096c0 0.8197 0.6647 1.4844 1.4844 1.4844h11.096c0.5923 0 1.128-0.3521 1.3628-0.896 0.2348-0.5437 0.1238-1.1752-0.2823-1.6062l-2.6131-2.7737c11.057-9.9933 28.188-9.6632 38.843 0.9924 10.997 10.997 10.997 28.89 0 39.887-5.3271 5.327-12.41 8.2608-19.944 8.2608-7.5337 0-14.616-2.9338-19.944-8.2608-5.3273-5.3273-8.2611-12.41-8.2611-19.944 0-0.8197-0.6647-1.4844-1.4844-1.4844h-6.8266c-0.81967 0-1.4844 0.6647-1.4844 1.4844 0 10.15 3.9527 19.693 11.13 26.87 6.5035 6.5035 15.133 10.425 24.299 11.043 0.8577 0.0579 1.7135 0.0864 2.5683 0.0864 8.1917 0 16.184-2.638 22.745-7.551 0.6563-0.4915 0.7897-1.4217 0.2985-2.078-0.4916-0.6561-1.4217-0.7897-2.0779-0.2985-13.833 10.358-33.494 8.9385-45.734-3.3015-6.2656-6.2656-9.8656-14.486-10.23-23.286h3.8617c0.36175 7.7695 3.5592 15.022 9.0961 20.558 12.154 12.154 31.931 12.154 44.086 0 12.154-12.154 12.154-31.931 0-44.086-12.154-12.155-31.931-12.155-44.086 0-0.5675 0.5674-0.5812 1.4833-0.0308 2.0676l1.2686 1.3464h-6.1734v-6.2392l0.1556 0.1423c0.5857 0.5365 1.49 0.5167 2.052-0.0451 6.6164-6.6166 15.414-10.26 24.771-10.26s18.154 3.6438 24.771 10.26c12.356 12.356 13.69 32.13 3.1041 45.995-0.4976 0.6517-0.3726 1.5831 0.2791 2.0807 0.6513 0.4977 1.583 0.3726 2.0806-0.2791 5.5349-7.2494 8.2659-16.28 7.6898-25.428z" fill="url(#a)"/>
<path d="m26.925 42.898h-4.4923c0.1956-0.1793 0.3936-0.3649 0.5918-0.5556 2.8086-2.7041 4.1739-4.9958 4.1739-7.0066 0-3.1124-2.0912-5.2035-5.2036-5.2035-2.8692 0-5.2035 2.3344-5.2035 5.2035 0 0.8197 0.6647 1.4844 1.4844 1.4844 0.8196 0 1.4843-0.6647 1.4843-1.4844 0-1.2322 1.0026-2.2347 2.2348-2.2347 2.2348 0 2.2348 1.6819 2.2348 2.2347 0 2.0663-3.9839 5.8262-6.8125 7.8359-0.5271 0.3739-0.7517 1.0457-0.5556 1.6613 0.1962 0.6156 0.7682 1.0337 1.4143 1.0337h8.6492c0.8196 0 1.4843-0.6647 1.4843-1.4844 0-0.8196-0.6647-1.4843-1.4843-1.4843z" fill="url(#a)"/>
<path d="m37.807 38.223h-1.0132v-0.4205c0-0.8197-0.6647-1.4844-1.4844-1.4844s-1.4844 0.6647-1.4844 1.4844v0.4205h-2.0481l3.3398-5.8715c0.4053-0.7127 0.1563-1.6189-0.5563-2.0243-0.7121-0.4051-1.6189-0.1563-2.0243 0.5564l-4.6015 8.0898c-0.2614 0.4596-0.2586 1.0233 0.0071 1.4802 0.2659 0.4571 0.7545 0.7382 1.2832 0.7382h4.6001v3.1914c0 0.8197 0.6647 1.4844 1.4844 1.4844s1.4844-0.6647 1.4844-1.4844v-3.1914h1.0132c0.8197 0 1.4844-0.6647 1.4844-1.4844s-0.6647-1.4844-1.4844-1.4844z" fill="url(#a)"/>
<path d="m47.137 30.232c-0.7655-0.2942-1.6241 0.0871-1.9184 0.8523l-4.9112 12.766c-0.2944 0.765 0.0872 1.6239 0.8523 1.9184 0.1754 0.0674 0.3555 0.0994 0.5327 0.0994 0.5963 0 1.1589-0.3619 1.3857-0.9518l4.9112-12.766c0.2943-0.765-0.0873-1.6239-0.8523-1.9184z" fill="url(#a)"/>
<path d="m58.943 30.77c-0.2774-0.3993-0.7328-0.6374-1.219-0.6374h-6.2343c-0.8197 0-1.4844 0.6647-1.4844 1.4844 0 0.8196 0.6647 1.4843 1.4844 1.4843h4.0982l-4.005 10.764c-0.2859 0.7681 0.1052 1.6228 0.8735 1.9087 0.1706 0.0636 0.3455 0.0937 0.5175 0.0937 0.6024 0 1.1689-0.3695 1.3913-0.9672l4.75-12.766c0.1697-0.4556 0.1052-0.9655-0.1722-1.3646z" fill="url(#a)"/>
<defs>
<linearGradient id="a" x1="38" x2="38" y2="76" gradientUnits="userSpaceOnUse">
<stop stop-color="#96C11F" offset="0"/>
<stop stop-color="#709800" offset="1"/>
</linearGradient>
</defs>
</svg>
