<?xml version="1.0" encoding="UTF-8"?>
<svg fill="none" viewBox="0 0 76 76" xmlns="http://www.w3.org/2000/svg">
<path d="m18.809 39.139h2.8711c2.6536 0 4.8727-2.0682 4.8727-4.6765v-1.8746h26.312v1.8746c0 2.6083 2.2197 4.6765 4.8727 4.6765h2.8711c1.2621 0.0092 2.474-0.4816 3.3637-1.3615 0.8896-0.8799 1.3815-2.0748 1.3648-3.315v-15.422c0.0127-1.746-0.7001-3.4219-1.9735-4.6397l-1.0378-1.1129-3.8622-10.237c-0.7034-1.8432-2.4994-3.0603-4.5009-3.0505h-27.818c-2.0042-0.0098424-3.8035 1.2067-4.5116 3.0498l-3.8202 10.117-1.4916 1.393c-1.4382 1.2205-2.2571 3.0007-2.2405 4.8681v15.035c-0.0153 1.2402 0.4772 2.4337 1.3669 3.3137 0.889 0.8792 2.1003 1.3707 3.3617 1.3628zm5.0101-4.6765c-0.01 0.5374-0.2402 1.0486-0.6387 1.4173-0.4038 0.378-0.943 0.5834-1.5003 0.5716h-2.8705c-0.5366 0.0078-1.0531-0.1995-1.4302-0.5755-0.3771-0.3753-0.5813-0.8865-0.5653-1.4134v-2.3385c0.614 0.3189 1.3008 0.479 1.9955 0.4639h5.0095v1.8746zm38.217 1.4173c-0.3751 0.376-0.8923 0.5827-1.4276 0.5716h-2.8705c-1.1466 0-2.1397-0.8622-2.1397-1.9889v-1.8746h5.0102c0.7315 0 1.4823-0.1588 1.9949-0.4606v2.3346c0.0173 0.5295-0.1882 1.0413-0.5673 1.4179zm-37.84-31.882c0.3064-0.79461 1.0832-1.3169 1.9475-1.3104h27.818c0.8643-0.00656 1.6418 0.51574 1.9481 1.3104l3.2509 8.6004h-38.214l3.2495-8.6004zm-7.3814 15.43c-0.0167-1.0919 0.4598-2.1352 1.3008-2.8491 0.0153-0.0131 0.01-0.0131 0.0253-0.0269l1.3789-1.2657h40.959l0.957 0.9928c0.0187 0.0197-0.0027 0.0334 0.018 0.0518 0.7475 0.7087 1.1633 1.689 1.15 2.7093v8.8182c0.0173 0.5367-0.1876 1.0577-0.5673 1.4442-0.3724 0.3832-0.8883 0.5991-1.4276 0.5977h-41.798c-1.1459 0-1.9955-0.916-1.9955-2.0419v-8.4304z" fill="url(#a)"/>
<path d="m29.97 20.325c0-0.7421-0.612-1.3438-1.3668-1.3438h-8.201c-0.7548 0-1.3669 0.6017-1.3669 1.3438v5.5433c0 0.7421 0.6121 1.3438 1.3669 1.3438h8.201c0.7548 0 1.3668-0.6017 1.3668-1.3438v-5.5433zm-8.201 1.3438h5.4673v2.8557h-5.4673v-2.8557z" fill="url(#a)"/>
<path d="m60.382 20.325c0-0.7421-0.612-1.3438-1.3668-1.3438h-8.201c-0.7548 0-1.3668 0.6017-1.3668 1.3438v5.5433c0 0.7421 0.612 1.3438 1.3668 1.3438h8.201c0.7548 0 1.3668-0.6017 1.3668-1.3438v-5.5433zm-8.201 1.3438h5.4674v2.8557h-5.4674v-2.8557z" fill="url(#a)"/>
<path d="m46.201 21.501c0-0.7421-0.612-1.3438-1.3668-1.3438h-10.422c-0.7548 0-1.3668 0.6017-1.3668 1.3438v3.1916c0 0.7421 0.612 1.3438 1.3668 1.3438h10.422c0.7548 0 1.3668-0.6017 1.3668-1.3438v-3.1916zm-10.422 1.3438h7.8593v0.504h-7.8593v-0.504z" fill="url(#a)"/>
<path d="m4.3041 74.888c0.13014 0.7309 0.83825 1.2198 1.5817 1.0918l11.16-1.9186c0.7434-0.1279 1.2406-0.8241 1.1105-1.5551l-0.2176-1.225 2.6036-2.0781c1.0191-0.8347 2.3292-1.2467 3.6526-1.149l18.198 1.3078c0.03 0.0019 0.0607 0.0033 0.0914 0.0033h0.1115c4.0157-0.0079 7.926-1.2664 11.169-3.5945 0.052-0.0374 0.1014-0.0787 0.1481-0.1234l21.677-20.868c0.5166-0.4973 0.55-1.3044 0.0754-1.8412-2.5007-2.8385-6.8281-3.244-9.8301-0.9219l-9.9562 7.3202c-2.0703-2.477-5.3352-3.668-8.5474-3.1188l-10.177 1.75c-1.6212 0.2769-3.285 0.1916-4.868-0.2493l-1.1386-0.3189c-5.8484-1.6522-12.149-0.3662-16.846 3.4376l-0.4285-2.4088c-0.1308-0.7309-0.8389-1.2198-1.5824-1.0918l-11.16 1.9193c-0.74349 0.1279-1.2407 0.8241-1.1106 1.5551l4.2834 24.077zm26.095-24.903 1.1379 0.3195c1.9802 0.5512 4.0605 0.6581 6.088 0.3117l10.177-1.75c2.9159-0.4974 5.7923 1.0597 6.9256 3.7473l-15.235 2.6201c-0.4845 0.0787-0.889 0.4075-1.0591 0.8609-0.1702 0.4527-0.0795 0.9613 0.2369 1.3307 0.3163 0.3694 0.8102 0.5433 1.2934 0.456l16.728-2.8773c0.7435-0.1279 1.2407-0.8241 1.1106-1.5551-0.1088-0.6122-0.283-1.2119-0.5192-1.7887l10.202-7.4999 0.028-0.0216c1.4736-1.1464 3.5226-1.2527 5.1096-0.2645l-20.552 19.79c-2.7591 1.958-6.0727 3.015-9.4751 3.0236h-0.0514l-18.152-1.3104c-2.0222-0.1509-4.025 0.4764-5.5854 1.7493l-1.4089 1.1234-2.5408-14.282c4.0518-4.0184 10.01-5.5453 15.542-3.9829zm-18.984 0.2303 3.8128 21.43-8.4672 1.4566-3.8122-21.43 8.4666-1.4567z" fill="url(#a)"/>
<defs>
<linearGradient id="a" x1="38" x2="38" y2="76" gradientUnits="userSpaceOnUse">
<stop stop-color="#96C11F" offset="0"/>
<stop stop-color="#709800" offset="1"/>
</linearGradient>
</defs>
</svg>
