<?xml version="1.0" encoding="UTF-8"?>
<svg fill="none" viewBox="0 0 76 60" xmlns="http://www.w3.org/2000/svg">
<path d="m75.996 53.759c-7e-4 -0.0112-6e-4 -0.0222-0.0016-0.0333-4e-3 -0.0441-0.0104-0.0873-0.0194-0.1296-9e-4 -0.0041-0.0023-0.0083-0.0033-0.0124-0.0088-0.0389-0.0196-0.0769-0.0324-0.114-0.0034-0.01-0.0071-0.0196-0.0108-0.0294-0.0125-0.0337-0.0266-0.0665-0.0422-0.0984-0.0026-0.0057-0.0044-0.0115-0.0072-0.0171l-5.9542-11.744v-38.638c0-1.1884-0.9667-2.1552-2.1551-2.1552h-59.541c-1.1884 0-2.1552 0.96677-2.1552 2.1552v38.638l-5.954 11.744c-0.002821 0.0057-0.004602 0.0115-0.007274 0.0171-0.015586 0.0319-0.029539 0.0647-0.042156 0.0983-0.0037109 0.0098-0.0074219 0.0196-0.010836 0.0295-0.012617 0.0373-0.023602 0.0754-0.032359 0.1143-8.906e-4 4e-3 -0.0022266 8e-3 -0.0031172 0.012-0.0090547 0.0425-0.015437 0.0857-0.019445 0.1298-0.0010391 0.011-0.0010391 0.0221-0.0016328 0.0331-0.0014844 0.0231-0.0035625 0.046-0.0035625 0.0694v2.8242c0 1.4115 1.1482 2.5597 2.5597 2.5597h70.881c1.4115 0 2.5597-1.1482 2.5597-2.5597v-2.8242c0-0.0234-0.0021-0.0463-0.0036-0.0691zm-67.695-50.745h59.398v37.719h-59.398v-37.719zm-0.42958 39.946h60.257l4.9456 9.7549h-24.46l-1.2278-4.4515c-0.2499-0.9062-1.0809-1.5391-2.0209-1.5391h-14.732c-0.94 0-1.7711 0.6329-2.0209 1.539l-1.2278 4.4516h-24.459l4.9456-9.7549zm38.433 9.7551h-16.61l1.038-3.7641h14.534l1.038 3.7641zm27.469 3.9373c0 0.1836-0.1494 0.3331-0.3331 0.3331h-70.881c-0.18362 0-0.3331-0.1495-0.3331-0.3331v-1.7109h71.547v1.7109z" fill="url(#a)"/>
<path d="m64.211 23.729c-0.615 0-1.1133 0.4983-1.1133 1.1133v11.289h-50.195v-11.289c0-0.615-0.4983-1.1133-1.1132-1.1133-0.615 0-1.1133 0.4983-1.1133 1.1133v11.77c0 0.9626 0.783 1.7458 1.7458 1.7458h51.156c0.9626 0 1.7458-0.783 1.7458-1.7458v-11.77c-2e-4 -0.6147-0.4985-1.1133-1.1134-1.1133z" fill="url(#a)"/>
<path d="m63.578 5.3895h-51.156c-0.9627 0-1.7458 0.783-1.7458 1.7458v11.77c0 0.615 0.4983 1.1133 1.1133 1.1133 0.6149 0 1.1132-0.4983 1.1132-1.1133v-11.289h50.195v11.289c0 0.615 0.4983 1.1133 1.1133 1.1133 0.6149 0 1.1132-0.4983 1.1132-1.1133v-11.77c0-0.96291-0.783-1.7458-1.7457-1.7458z" fill="url(#a)"/>
<path d="M27 22.8508L35.9035 32L53 14.4826L50.5455 12L35.9035 26.9999L29.4205 20.3507L27 22.8508Z" fill="url(#a)"/>
<defs>
<linearGradient id="a" x1="38" x2="38" y1=".78766" y2="59.212" gradientUnits="userSpaceOnUse">
<stop stop-color="#96C11F" offset="0"/>
<stop stop-color="#709800" offset="1"/>
</linearGradient>
</defs>
</svg>
