<?xml version="1.0" encoding="UTF-8"?>
<svg fill="none" viewBox="0 0 76 72" xmlns="http://www.w3.org/2000/svg">
<path d="m5.1031 43.985c2.0381 2.2767 1.9534 4.0936 1.8137 7.104-0.04232 0.9026-0.08987 1.9254-0.0719 3.0321 0.08698 5.3616 3.973 6.2536 7.0954 6.9697 2.6562 0.61 5.1657 1.1859 6.671 3.8403 2.5762 4.6238 4.7656 8.3151 9.8368 6.6718 1.7221-0.5589 2.9537-1.0873 3.9435-1.512 1.4872-0.638 2.3065-0.9899 3.6083-0.9899 1.3011 0 2.121 0.3519 3.6082 0.9899 0.9904 0.4247 2.222 0.9537 3.9441 1.512 2.408 0.7806 4.3615 0.3554 6.0192-1.1272 1.5203-1.3601 2.7066-3.5822 3.817-5.5446 1.5058-2.6544 4.0148-3.2303 6.671-3.8403 3.1224-0.7161 7.0084-1.6081 7.0942-6.9697 0.018-1.1072-0.029-2.1307-0.0707-3.0332-0.1398-3.0099-0.2238-4.8268 1.8143-7.1029 3.0934-3.4549 5.1066-5.6091 5.1031-7.9925 4e-3 -2.5436-2.473-5.0525-5.1031-7.989-2.0381-2.2773-1.9541-4.0942-1.8143-7.1046 0.0417-0.9026 0.0893-1.926 0.0707-3.0327-0.0858-5.361-3.9712-6.2531-7.0936-6.9697-2.6562-0.61-5.1658-1.1859-6.6716-3.8409-1.1156-1.97-2.3118-4.1974-3.8182-5.5452-1.6995-1.5196-3.668-1.8873-6.018-1.1255-1.7233 0.55891-2.9566 1.0873-3.947 1.5125-1.4866 0.6375-2.3054 0.9888-3.6042 0.98939-1.3017-5.9e-4 -2.1198-0.35189-3.6065-0.98939-0.9904-0.4252-2.2231-0.95362-3.9464-1.5119-2.35-0.76301-4.3186-0.3947-6.018 1.1249-1.5204 1.3595-2.7079 3.5834-3.8188 5.5452-1.5047 2.6532-4.1122 3.2303-6.8728 3.8409-3.2308 0.7149-7.2519 1.6046-7.3389 6.9697-0.02145 1.3454 0.08582 2.5541 0.18149 3.6203 0.24527 2.7594 0.39371 4.425-1.478 6.517-3.0458 3.401-5.1112 5.5985-5.1031 7.9855-0.0086975 2.5265 2.3976 4.9751 5.1031 7.996zm2.2005-13.966c2.7443-3.0667 2.4962-5.8525 2.2341-8.8013-0.09277-1.0404-0.18902-2.1166-0.16989-3.3024 0.04639-2.8679 1.5678-3.3248 5.0045-4.0849 2.9647-0.6562 6.6542-1.472 8.814-5.28 2.1825-3.5875 3.1624-6.341 6.3556-5.3053 1.5945 0.51727 2.7095 0.99525 3.6935 1.4175 1.598 0.685 2.8597 1.2269 4.765 1.2275 1.903-5.9e-4 3.1653-0.5425 4.7633-1.2275 0.984-0.42227 2.099-0.90025 3.6947-1.4175 3.1862-1.0328 4.1395 1.6644 6.355 5.3053 2.1535 3.7968 5.7223 4.6161 8.5896 5.2748 3.3677 0.7729 4.7355 1.2022 4.7825 4.0906 0.0162 1.0123-0.0267 1.943-0.0685 2.8433-0.1443 3.1183-0.2812 6.0642 2.5791 9.2605 2.1901 2.445 4.3378 4.7499 4.3349 5.9698v0.0076c0.0034 1.3178-2.5617 3.9933-4.3349 5.9727-2.8603 3.1945-2.7234 6.1404-2.5791 9.2587 0.0418 0.9003 0.0847 1.8316 0.0685 2.8439-0.047 2.889-1.4154 3.3177-4.7831 4.0907-2.8672 0.658-6.4355 1.4773-8.589 5.2747l-0.2006 0.3531c-2.5107 4.4361-3.5416 5.7991-6.1544 4.9534-1.5933-0.5173-2.7078-0.9953-3.6912-1.4169-1.5991-0.6862-2.8626-1.2287-4.7673-1.2287-1.9054 0-3.1688 0.5419-4.768 1.2287-0.9828 0.4216-2.0972 0.8996-3.69 1.4163-3.1798 1.0305-4.1279-1.6445-6.355-5.3064-2.1541-3.7969-5.7224-4.6162-8.5896-5.2742-3.3683-0.773-4.7372-1.2017-4.7842-4.0907-0.01624-1.0117 0.02725-1.9419 0.069-2.8415 0.14551-3.1195 0.28241-6.066-2.5785-9.2611-1.9987-2.2316-4.3389-4.7141-4.3348-5.9803-0.00464-1.3149 2.5658-3.9945 4.3348-5.9704z" fill="url(#a)"/>
<path d="m32.062 25.526c-2.4556 0-4.4531 2.0204-4.4531 4.5042 0 2.4831 1.9975 4.5042 4.4531 4.5042s4.4531-2.0211 4.4531-4.5042c0-2.4838-1.9975-4.5042-4.4531-4.5042zm0 6.0056c-0.8187 0-1.4844-0.6739-1.4844-1.5014 0-0.8281 0.6657-1.5014 1.4844-1.5014s1.4844 0.6733 1.4844 1.5014c0 0.8275-0.6657 1.5014-1.4844 1.5014z" fill="url(#a)"/>
<path d="m39.484 42.042c0 2.4831 1.9976 4.5042 4.4532 4.5042s4.4531-2.0211 4.4531-4.5042c0-2.4838-1.9975-4.5042-4.4531-4.5042s-4.4532 2.0204-4.4532 4.5042zm5.9375 0c0 0.8275-0.6656 1.5014-1.4843 1.5014-0.8188 0-1.4844-0.6739-1.4844-1.5014 0-0.8281 0.6656-1.5014 1.4844-1.5014 0.8187 0 1.4843 0.6733 1.4843 1.5014z" fill="url(#a)"/>
<path d="m31.239 46.294c0.679 0.4575 1.6021 0.2762 2.0584-0.4164l11.875-18.017c0.4546-0.6903 0.2702-1.6222-0.4117-2.082-0.6824-0.4604-1.6038-0.2739-2.0584 0.4164l-11.875 18.017c-0.4546 0.6897-0.2702 1.6216 0.4117 2.082z" fill="url(#a)"/>
<path d="m38 61.56c13.914 0 25.234-11.45 25.234-25.524 0-14.074-11.32-25.524-25.234-25.524s-25.234 11.45-25.234 25.524c0 14.074 11.32 25.524 25.234 25.524zm0-48.044c12.277 0 22.266 10.103 22.266 22.521 0 12.418-9.9882 22.521-22.266 22.521-12.277 0-22.266-10.103-22.266-22.521 0-12.418 9.9881-22.521 22.266-22.521z" fill="url(#a)"/>
<defs>
<linearGradient id="a" x1="38" x2="38" y2="72" gradientUnits="userSpaceOnUse">
<stop stop-color="#96C11F" offset="0"/>
<stop stop-color="#709800" offset="1"/>
</linearGradient>
</defs>
</svg>
