<svg width="20" height="20" viewBox="0 0 20 20" fill="none" xmlns="http://www.w3.org/2000/svg">
<path d="M18.2422 2.34375H17.6562V1.75781C17.6562 0.788555 16.8677 0 15.8984 0C14.9292 0 14.1406 0.788555 14.1406 1.75781V2.34375H11.7969V1.75781C11.7969 0.788555 11.0083 0 10.0391 0C9.06981 0 8.28125 0.788555 8.28125 1.75781V2.34375H5.85938V1.75781C5.85938 0.788555 5.07082 0 4.10156 0C3.1323 0 2.34375 0.788555 2.34375 1.75781V2.34375H1.75781C0.788555 2.34375 0 3.1323 0 4.10156C0 4.18656 0 18.0175 0 18.2422C0 19.2114 0.788555 20 1.75781 20H18.2422C19.2114 20 20 19.2114 20 18.2422C20 18.1343 20 4.29195 20 4.10156C20 3.1323 19.2114 2.34375 18.2422 2.34375ZM15.3125 1.75781C15.3125 1.43473 15.5754 1.17188 15.8984 1.17188C16.2215 1.17188 16.4844 1.43473 16.4844 1.75781V4.10156C16.4844 4.42465 16.2215 4.6875 15.8984 4.6875C15.5754 4.6875 15.3125 4.42465 15.3125 4.10156V1.75781ZM9.45312 1.75781C9.45312 1.43473 9.71598 1.17188 10.0391 1.17188C10.3621 1.17188 10.625 1.43473 10.625 1.75781V4.10156C10.625 4.42465 10.3621 4.6875 10.0391 4.6875C9.71598 4.6875 9.45312 4.42465 9.45312 4.10156V1.75781ZM3.51562 1.75781C3.51562 1.43473 3.77848 1.17188 4.10156 1.17188C4.42465 1.17188 4.6875 1.43473 4.6875 1.75781V4.10156C4.6875 4.42465 4.42465 4.6875 4.10156 4.6875C3.77848 4.6875 3.51562 4.42465 3.51562 4.10156V1.75781ZM18.8281 18.2422C18.8281 18.5653 18.5653 18.8281 18.2422 18.8281H1.75781C1.43473 18.8281 1.17188 18.5653 1.17188 18.2422V8.28125H18.8281V18.2422ZM18.8281 7.10938H1.17188V4.10156C1.17188 3.77848 1.43473 3.51562 1.75781 3.51562H2.34375V4.10156C2.34375 5.07082 3.1323 5.85938 4.10156 5.85938C5.07082 5.85938 5.85938 5.07082 5.85938 4.10156V3.51562H8.28125V4.10156C8.28125 5.07082 9.06981 5.85938 10.0391 5.85938C11.0083 5.85938 11.7969 5.07082 11.7969 4.10156V3.51562H14.1406V4.10156C14.1406 5.07082 14.9292 5.85938 15.8984 5.85938C16.8677 5.85938 17.6562 5.07082 17.6562 4.10156V3.51562H18.2422C18.5653 3.51562 18.8281 3.77848 18.8281 4.10156V7.10938Z" fill="white"/>
<path d="M17.0703 9.45312H2.92969C2.60609 9.45312 2.34375 9.71547 2.34375 10.0391V17.0703C2.34375 17.3939 2.60609 17.6562 2.92969 17.6562H17.0703C17.3939 17.6562 17.6562 17.3939 17.6562 17.0703V10.0391C17.6562 9.71547 17.3939 9.45312 17.0703 9.45312ZM5.85938 16.4844H3.51562V14.1406H5.85938V16.4844ZM5.85938 12.9688H3.51562V10.625H5.85938V12.9688ZM9.45312 16.4844H7.03125V14.1406H9.45312V16.4844ZM9.45312 12.9688H7.03125V10.625H9.45312V12.9688ZM12.9688 16.4844H10.625V14.1406H12.9688V16.4844ZM12.9688 12.9688H10.625V10.625H12.9688V12.9688ZM16.4844 16.4844H14.1406V14.1406H16.4844V16.4844ZM16.4844 12.9688H14.1406V10.625H16.4844V12.9688Z" fill="white"/>
</svg>