<svg width="373" height="31" viewBox="0 0 373 31" fill="none" xmlns="http://www.w3.org/2000/svg">
<path fill-rule="evenodd" clip-rule="evenodd" d="M21.8065 14.4416V22.3536C20.3384 23.013 18.827 23.3014 17.1861 23.3014C15.5021 23.3014 14.0339 22.9718 12.7385 22.2712C11.443 21.5707 10.4067 20.5817 9.71577 19.3454C8.98169 18.1091 8.63625 16.6668 8.63625 15.0597C8.63625 12.5872 9.4135 10.5679 11.0112 9.08442C12.5657 7.6009 14.6816 6.81793 17.2725 6.81793C20.1224 6.81793 22.5406 7.88936 24.6133 10.0322L30.0541 5.33442C28.5428 3.64486 26.686 2.32618 24.4406 1.41958C22.1951 0.512989 19.6475 0.0596924 16.8407 0.0596924C13.6021 0.0596924 10.7089 0.719033 8.16125 1.99651C5.57038 3.27398 3.58404 5.04596 2.15906 7.31244C0.690899 9.62013 0 12.1751 0 15.0597C0 17.9443 0.690899 20.5405 2.15906 22.8069C3.58404 25.1146 5.57038 26.8866 8.11807 28.1641C10.6226 29.4416 13.4725 30.0597 16.6679 30.0597C18.9134 30.0597 21.1588 29.7712 23.4042 29.1119C25.6496 28.4938 27.636 27.5872 29.3632 26.3921V14.4416H21.8065Z" fill="white"/>
<path fill-rule="evenodd" clip-rule="evenodd" d="M41.3905 28.1229C43.9382 29.4416 46.8313 30.0597 50.0268 30.0597C53.2222 30.0597 56.0721 29.4416 58.6198 28.1229C61.1675 26.8454 63.1538 25.0734 64.622 22.7657C66.0902 20.4993 66.8242 17.9443 66.8242 15.0597C66.8242 12.2163 66.0902 9.66134 64.622 7.35365C63.1538 5.08716 61.1675 3.31519 58.6198 1.99651C56.0721 0.719033 53.2222 0.0596924 50.0268 0.0596924C46.8313 0.0596924 43.9382 0.719033 41.3905 1.99651C38.8428 3.31519 36.8565 5.08716 35.3883 7.35365C33.9202 9.66134 33.2292 12.2163 33.2292 15.0597C33.2292 17.9443 33.9202 20.4993 35.3883 22.7657C36.8565 25.0734 38.8428 26.8454 41.3905 28.1229ZM54.1721 22.2712C52.9199 22.9718 51.5381 23.3014 50.0268 23.3014C48.4722 23.3014 47.0904 22.9718 45.8813 22.2712C44.6291 21.6119 43.6359 20.6229 42.945 19.3866C42.2109 18.1504 41.8655 16.708 41.8655 15.0597C41.8655 13.4525 42.2109 12.0102 42.945 10.774C43.6359 9.53771 44.6291 8.5487 45.8813 7.84815C47.0904 7.18881 48.4722 6.81793 50.0268 6.81793C51.5381 6.81793 52.9199 7.18881 54.1721 7.84815C55.3812 8.5487 56.3744 9.53771 57.1085 10.774C57.7994 12.0102 58.188 13.4525 58.188 15.0597C58.188 16.708 57.7994 18.1504 57.1085 19.3866C56.3744 20.6229 55.3812 21.6119 54.1721 22.2712Z" fill="white"/>
<path fill-rule="evenodd" clip-rule="evenodd" d="M77.909 28.1229C80.4567 29.4416 83.3499 30.0597 86.5453 30.0597C89.7407 30.0597 92.5907 29.4416 95.1384 28.1229C97.686 26.8454 99.6724 25.0734 101.141 22.7657C102.609 20.4993 103.343 17.9443 103.343 15.0597C103.343 12.2163 102.609 9.66134 101.141 7.35365C99.6724 5.08716 97.686 3.31519 95.1384 1.99651C92.5907 0.719033 89.7407 0.0596924 86.5453 0.0596924C83.3499 0.0596924 80.4567 0.719033 77.909 1.99651C75.3614 3.31519 73.375 5.08716 71.9069 7.35365C70.4387 9.66134 69.7478 12.2163 69.7478 15.0597C69.7478 17.9443 70.4387 20.4993 71.9069 22.7657C73.375 25.0734 75.3614 26.8454 77.909 28.1229ZM90.6907 22.2712C89.4384 22.9718 88.0566 23.3014 86.5453 23.3014C84.9908 23.3014 83.609 22.9718 82.3999 22.2712C81.1476 21.6119 80.1545 20.6229 79.4636 19.3866C78.7295 18.1504 78.384 16.708 78.384 15.0597C78.384 13.4525 78.7295 12.0102 79.4636 10.774C80.1545 9.53771 81.1476 8.5487 82.3999 7.84815C83.609 7.18881 84.9908 6.81793 86.5453 6.81793C88.0566 6.81793 89.4384 7.18881 90.6907 7.84815C91.8998 8.5487 92.8929 9.53771 93.627 10.774C94.3179 12.0102 94.7065 13.4525 94.7065 15.0597C94.7065 16.708 94.3179 18.1504 93.627 19.3866C92.8929 20.6229 91.8998 21.6119 90.6907 22.2712Z" fill="white"/>
<path fill-rule="evenodd" clip-rule="evenodd" d="M136.882 7.43607C135.457 5.29322 133.47 3.60366 130.923 2.4086C128.332 1.25476 125.396 0.636627 122.114 0.636627H107.821V7.14761H121.768C124.359 7.14761 126.432 7.84816 127.986 9.24926C129.541 10.6916 130.361 12.6284 130.361 15.0597C130.361 17.5322 129.541 19.469 127.986 20.8701C126.432 22.2712 124.359 22.9718 121.768 22.9718H116.371V15.307H107.821V29.4828H122.114C125.396 29.4828 128.332 28.9058 130.923 27.7108C133.47 26.5569 135.457 24.8674 136.882 22.6833C138.264 20.5405 138.998 17.9855 138.998 15.0597C138.998 12.1751 138.264 9.62014 136.882 7.43607Z" fill="white"/>
<path fill-rule="evenodd" clip-rule="evenodd" d="M150.016 28.1641C152.521 29.4416 155.371 30.0597 158.566 30.0597C161.33 30.0597 163.791 29.6064 166.037 28.6586C168.239 27.752 170.096 26.3921 171.564 24.6201L166.123 19.9223C164.137 22.1888 161.762 23.3014 158.998 23.3014C157.357 23.3014 155.889 22.9718 154.593 22.2712C153.298 21.6119 152.305 20.6229 151.614 19.3866C150.923 18.1504 150.578 16.708 150.578 15.0597C150.578 13.4525 150.923 12.0102 151.614 10.774C152.305 9.53771 153.298 8.5487 154.593 7.84815C155.889 7.18881 157.357 6.81793 158.998 6.81793C161.762 6.81793 164.137 7.97178 166.123 10.1971L171.564 5.49925C170.096 3.76848 168.239 2.40859 166.037 1.46079C163.791 0.554198 161.33 0.0596924 158.566 0.0596924C155.371 0.0596924 152.521 0.719033 150.016 1.99651C147.512 3.27398 145.525 5.04596 144.1 7.31244C142.632 9.62013 141.941 12.1751 141.941 15.0597C141.941 17.9443 142.632 20.5405 144.1 22.8069C145.525 25.1146 147.512 26.8866 150.016 28.1641Z" fill="white"/>
<path fill-rule="evenodd" clip-rule="evenodd" d="M192.963 0.636627H184.542L171.199 29.4828H179.922L182.297 23.8784L184.802 17.8619H192.574L195.079 23.8784L197.454 29.4828H206.349L192.963 0.636627Z" fill="white"/>
<path fill-rule="evenodd" clip-rule="evenodd" d="M230.105 20.4168C231.962 19.5515 233.43 18.3564 234.467 16.7905C235.503 15.2245 236.021 13.4113 236.021 11.3097C236.021 9.16684 235.46 7.27124 234.38 5.6641C233.257 4.05696 231.703 2.82069 229.717 1.95531C227.687 1.08992 225.312 0.636627 222.592 0.636627H208.774V7.0652H222.073C223.801 7.0652 225.139 7.43608 226.046 8.17783C226.91 8.91959 227.385 9.99102 227.385 11.3097C227.385 12.6696 226.91 13.6998 226.046 14.4416C225.139 15.1833 223.801 15.513 222.073 15.513H208.774V29.4828H217.324V21.8179H221.987L227.471 29.4828H236.626L230.105 20.4168Z" fill="white"/>
<path fill-rule="evenodd" clip-rule="evenodd" d="M240.306 28.535C241.256 29.4416 242.422 29.8536 243.804 29.8536C245.186 29.8536 246.351 29.4416 247.301 28.535C248.251 27.6696 248.726 26.5569 248.726 25.197C248.726 23.8372 248.251 22.7245 247.345 21.8591C246.395 21.035 245.229 20.5817 243.804 20.5817C242.379 20.5817 241.213 21.035 240.263 21.8591C239.313 22.7245 238.881 23.8372 238.881 25.197C238.881 26.5569 239.356 27.6696 240.306 28.535Z" fill="white"/>
<path fill-rule="evenodd" clip-rule="evenodd" d="M274.299 20.4168C276.155 19.5515 277.624 18.3564 278.66 16.7905C279.696 15.2245 280.214 13.4113 280.214 11.3097C280.214 9.16684 279.653 7.27124 278.573 5.6641C277.451 4.05696 275.896 2.82069 273.91 1.95531C271.88 1.08992 269.505 0.636627 266.785 0.636627H252.967V7.0652H266.267C267.994 7.0652 269.333 7.43608 270.24 8.17783C271.103 8.91959 271.578 9.99102 271.578 11.3097C271.578 12.6696 271.103 13.6998 270.24 14.4416C269.333 15.1833 267.994 15.513 266.267 15.513H252.967V29.4828H261.517V21.8179H266.18L271.664 29.4828H280.819L274.299 20.4168Z" fill="white"/>
<path fill-rule="evenodd" clip-rule="evenodd" d="M308.897 0.636627H284.931V6.94157H308.897V0.636627ZM308.897 11.8042H284.931V17.9031H308.897V11.8042ZM284.931 23.1778V29.4828H308.897V23.1778L284.931 23.1778Z" fill="white"/>
<path fill-rule="evenodd" clip-rule="evenodd" d="M313.944 29.4828H322.321V24.6201L313.944 14.4416V29.4828ZM334.325 0.636627V5.87014L342.702 15.513V0.636628L334.325 0.636627ZM334.325 16.0075L320.982 0.636627H313.944V4.46904L322.321 14.1119L335.664 29.4828H342.702V26.1449L334.325 15.9663V16.0075Z" fill="white"/>
<path fill-rule="evenodd" clip-rule="evenodd" d="M355.209 7.1064V29.4828H363.759V7.1064H373V0.636627H345.925V7.1064H355.209Z" fill="white"/>
</svg>
