<svg width="24" height="24" viewBox="0 0 24 24" fill="none" xmlns="http://www.w3.org/2000/svg">
<path d="M12 14.1875C10.7943 14.1875 9.8125 13.2058 9.8125 12C9.8125 10.7934 10.7943 9.8125 12 9.8125C13.2058 9.8125 14.1875 10.7934 14.1875 12C14.1875 13.2058 13.2058 14.1875 12 14.1875Z" fill="white"/>
<path fill-rule="evenodd" clip-rule="evenodd" d="M14.625 17.6875C16.3138 17.6875 17.6875 16.3138 17.6875 14.625V9.375C17.6875 7.68625 16.3138 6.3125 14.625 6.3125H9.375C7.68625 6.3125 6.3125 7.68625 6.3125 9.375V14.625C6.3125 16.3138 7.68625 17.6875 9.375 17.6875H14.625ZM16.2289 8.23749C16.2289 8.49507 16.0201 8.70387 15.7625 8.70387C15.5049 8.70387 15.2961 8.49507 15.2961 8.23749C15.2961 7.97992 15.5049 7.77112 15.7625 7.77112C16.0201 7.77112 16.2289 7.97992 16.2289 8.23749ZM12 8.5C10.0671 8.5 8.5 10.0671 8.5 12C8.5 13.9329 10.0671 15.5 12 15.5C13.9329 15.5 15.5 13.9329 15.5 12C15.5 10.0671 13.9329 8.5 12 8.5Z" fill="white"/>
<path fill-rule="evenodd" clip-rule="evenodd" d="M12 24C18.6274 24 24 18.6274 24 12C24 5.37258 18.6274 0 12 0C5.37258 0 0 5.37258 0 12C0 18.6274 5.37258 24 12 24ZM5 9.375C5 6.95913 6.95913 5 9.375 5H14.625C17.0409 5 19 6.95913 19 9.375V14.625C19 17.0409 17.0409 19 14.625 19H9.375C6.95913 19 5 17.0409 5 14.625V9.375Z" fill="white"/>
</svg>